<?xml version="1.0" encoding="iso-8859-1"?>
<!-- Uploaded to: SVG Repo, www.svgrepo.com, Generator: SVG Repo Mixer Tools -->
<!DOCTYPE svg PUBLIC "-//W3C//DTD SVG 1.1//EN" "http://www.w3.org/Graphics/SVG/1.1/DTD/svg11.dtd">
<svg fill="#000000" version="1.1" id="Capa_1" xmlns="http://www.w3.org/2000/svg" xmlns:xlink="http://www.w3.org/1999/xlink" 
	 width="800px" height="800px" viewBox="0 0 540.587 540.587"
	 xml:space="preserve">
<g>
	<g>
		<path d="M156.681,540.587h227.225c20.225,0,36.682-16.467,36.682-36.691V36.682C420.587,16.457,404.13,0,383.906,0H156.681
			C136.457,0,120,16.457,120,36.682v467.214C120,524.12,136.457,540.587,156.681,540.587z M134.343,36.682
			c0-12.307,10.021-22.338,22.338-22.338h227.225c12.316,0,22.338,10.031,22.338,22.338v467.214
			c0,12.326-10.021,22.348-22.338,22.348H156.681c-12.316,0-22.338-10.021-22.338-22.348V36.682z"/>
		<path d="M152.12,476.996h236.346c1.98,0,3.586-1.606,3.586-3.586V63.237c0-1.979-1.605-3.586-3.586-3.586H152.12
			c-1.979,0-3.586,1.606-3.586,3.586V473.41C148.534,475.39,150.141,476.996,152.12,476.996z M165.269,66.823h210.049
			c5.279,0,9.562,4.284,9.562,9.562v383.876c0,5.279-4.283,9.562-9.562,9.562H165.269c-5.279,0-9.562-4.283-9.562-9.562V76.385
			C155.706,71.106,159.99,66.823,165.269,66.823z"/>
		<path d="M250.126,37.81h40.334c1.98,0,3.586-1.606,3.586-3.586s-1.605-3.586-3.586-3.586h-40.334
			c-1.979,0-3.586,1.606-3.586,3.586S248.146,37.81,250.126,37.81z"/>
		<path d="M290.949,485.191h-41.311c-8.482,0-15.386,6.904-15.386,15.377v2.467c0,8.482,6.904,15.386,15.386,15.386h41.311
			c8.482,0,15.385-6.913,15.385-15.386v-2.467C306.343,492.096,299.431,485.191,290.949,485.191z M299.171,503.035
			c0,4.532-3.689,8.214-8.213,8.214h-41.311c-4.533,0-8.214-3.69-8.214-8.214v-2.467c0-4.523,3.691-8.205,8.214-8.205h41.311
			c4.531,0,8.213,3.691,8.213,8.205V503.035z"/>
		<path d="M348.017,222.729l-0.602-0.43c-0.574-0.45-1.168-0.87-1.74-1.214l-68.324-47.736c-4.008-2.802-10.71-2.792-14.717,0.029
			l-67.77,47.727c-0.583,0.354-1.128,0.746-1.625,1.138c0,0-0.287,0.21-0.631,0.479c-0.354,0.268-3.002,2.62-4.513,6.101
			c-0.909,2.094-1.406,4.361-1.406,6.675v62.844c0,17.165,13.971,31.126,31.126,31.126h104.939
			c17.154,0,31.125-13.961,31.125-31.126v-62.844c0-2.314-0.496-4.59-1.404-6.694C350.962,225.321,348.351,222.969,348.017,222.729z
			 M274.3,177.729l50.672,35.4c4.332,3.021,3.557,5.479-1.723,5.479h-106c-5.278,0-6.062-2.467-1.74-5.508l50.213-35.353
			C267.902,176.208,272.111,176.198,274.3,177.729z M192.043,235.496c0-3.414,1.549-6.646,4.198-8.836
			c0.22-0.153,29.749,20.569,44.236,30.744c4.322,3.041,4.915,8.645,1.329,12.518l-36.194,39.12
			c-3.586,3.872-9.668,3.92-11.676-0.966c-1.253-3.051-1.903-6.34-1.903-9.735v-62.844H192.043z M217.824,324.13
			c-2.629,0-5.211-0.401-7.678-1.176c-4.103-1.291-4.055-6.579-0.469-10.452l36.529-39.474c3.586-3.873,9.065-5.212,12.23-2.974
			l5.738,4.045c3.213,2.257,8.423,2.266,11.646,0.019c0,0,2.754-1.922,6.141-4.293c3.395-2.372,9.074-1.177,12.697,2.668
			l37.141,39.406c3.625,3.845,3.578,9.391-0.812,10.883c-2.639,0.898-5.422,1.357-8.232,1.357h-104.93V324.13z M348.542,298.34
			c0,3.099-0.562,6.14-1.625,8.999c-1.779,4.752-7.611,4.724-11.236,0.88l-36.586-38.824c-3.623-3.844-3.051-9.41,1.281-12.431
			l35.832-25.035c4.33-3.022,9.811-4.045,11.121-1.473c0.803,1.578,1.213,3.29,1.213,5.04V298.34z"/>
	</g>
</g>
</svg>